<?xml version="1.0" encoding="UTF-8"?><svg id="Layer_1" xmlns="http://www.w3.org/2000/svg" width="16" height="16" viewBox="0 0 16 16"><defs><style>.cls-1{fill:#fff;}</style></defs><path class="cls-1" d="M13.109,13.056H2.898V2.893h10.211v10.163ZM3.997,11.956h8.012V3.992H3.997v7.964Z"/><rect class="cls-1" x="-.009" y="10.409" width="3.036" height="1.1"/><rect class="cls-1" x="-.009" y="7.44" width="3.082" height="1.1"/><rect class="cls-1" x="-.009" y="4.519" width="3.082" height="1.1"/><rect class="cls-1" x="4.488" y="0" width="1.1" height="3.035"/><rect class="cls-1" x="7.457" y="0" width="1.1" height="3.082"/><rect class="cls-1" x="10.378" y="0" width="1.1" height="3.082"/><rect class="cls-1" x="12.927" y="10.43" width="3.073" height="1.1"/><rect class="cls-1" x="12.927" y="7.46" width="3.082" height="1.1"/><rect class="cls-1" x="12.927" y="4.539" width="3.082" height="1.1"/><rect class="cls-1" x="4.507" y="12.918" width="1.1" height="3.082"/><rect class="cls-1" x="7.477" y="12.918" width="1.1" height="3.082"/><rect class="cls-1" x="10.398" y="12.918" width="1.1" height="3.082"/></svg>