<?xml version="1.0" encoding="UTF-8"?><svg id="Layer_1" xmlns="http://www.w3.org/2000/svg" width="16" height="16" viewBox="0 0 16 16"><defs><style>.cls-1{fill:#fff;}</style></defs><path class="cls-1" d="M10.793,3.459h-5.008V.018h5.008v3.441ZM6.795,2.449h2.988v-1.422h-2.988v1.422Z"/><circle class="cls-1" cx="8.289" cy="8.359" r=".719"/><path class="cls-1" d="M8.289,9.577c-.672,0-1.219-.547-1.219-1.219s.547-1.219,1.219-1.219,1.219.547,1.219,1.219-.547,1.219-1.219,1.219ZM8.289,8.14c-.121,0-.219.098-.219.219,0,.242.438.242.438,0,0-.121-.098-.219-.219-.219Z"/><path class="cls-1" d="M14.104,8.384c-.973,0-1.764-.791-1.764-1.764s.791-1.764,1.764-1.764,1.764.791,1.764,1.764-.791,1.764-1.764,1.764ZM14.104,5.866c-.416,0-.754.338-.754.754s.338.754.754.754.754-.338.754-.754-.338-.754-.754-.754Z"/><path class="cls-1" d="M4.762,15.355c-1.064,0-1.93-.865-1.93-1.93s.865-1.931,1.93-1.931,1.931.866,1.931,1.931-.866,1.93-1.931,1.93ZM4.762,12.504c-.507,0-.92.413-.92.921s.413.92.92.92.921-.413.921-.92-.413-.921-.921-.921Z"/><path class="cls-1" d="M11.894,16.009c-1.343,0-2.436-1.093-2.436-2.437s1.093-2.436,2.436-2.436,2.436,1.093,2.436,2.436-1.093,2.437-2.436,2.437ZM11.894,12.147c-.786,0-1.426.64-1.426,1.426s.64,1.427,1.426,1.427,1.426-.64,1.426-1.427-.64-1.426-1.426-1.426Z"/><path class="cls-1" d="M2.414,8.95C1.156,8.95.133,7.927.133,6.669s1.023-2.281,2.281-2.281,2.281,1.023,2.281,2.281-1.023,2.281-2.281,2.281ZM2.414,5.398c-.701,0-1.271.57-1.271,1.271s.57,1.271,1.271,1.271,1.271-.57,1.271-1.271-.57-1.271-1.271-1.271Z"/><rect class="cls-1" x="7.784" y="4.477" width="1.01" height="3.582"/><rect class="cls-1" x="8.602" y="7.216" width="4.34" height="1.01" transform="translate(-1.802 3.533) rotate(-17.209)"/><rect class="cls-1" x="9.156" y="8.322" width="1.01" height="4.014" transform="translate(-4.151 7.284) rotate(-34.483)"/><rect class="cls-1" x="4.678" y="10.035" width="4.393" height="1.01" transform="translate(-5.706 10.265) rotate(-55.634)"/><rect class="cls-1" x="5.502" y="5.802" width="1.011" height="3.976" transform="translate(-3.175 11.321) rotate(-73.39)"/><rect class="cls-1" x="4.946" y="3.802" width="6.686" height="1.01"/></svg>