<?xml version="1.0" encoding="UTF-8"?><svg id="Layer_1" xmlns="http://www.w3.org/2000/svg" width="16" height="16" viewBox="0 0 16 16"><defs><style>.cls-1{fill:#fff;}</style></defs><rect class="cls-1" x="7.391" y="7.381" width="1.248" height="1.248" transform="translate(-3.313 8.012) rotate(-45)"/><path class="cls-1" d="M15.995,13.351H.005V2.65h15.99v10.701ZM1.014,12.341h13.971V3.659H1.014v8.682Z"/><polygon class="cls-1" points="14.257 11.629 10.663 11.629 10.663 10.619 13.247 10.619 13.247 8.005 14.257 8.005 14.257 11.629"/><line class="cls-1" x1="10.972" y1="8.318" x2="13.537" y2="10.905"/><rect class="cls-1" x="11.75" y="7.791" width="1.01" height="3.643" transform="translate(-3.215 11.413) rotate(-44.75)"/><polygon class="cls-1" points="2.769 8.005 1.759 8.005 1.759 4.381 5.353 4.381 5.353 5.391 2.769 5.391 2.769 8.005"/><line class="cls-1" x1="5.043" y1="7.692" x2="2.478" y2="5.105"/><rect class="cls-1" x="3.256" y="4.577" width="1.01" height="3.643" transform="translate(-3.415 4.502) rotate(-44.75)"/></svg>