<?xml version="1.0" encoding="UTF-8"?><svg id="Layer_1" xmlns="http://www.w3.org/2000/svg" width="16" height="16" viewBox="0 0 16 16"><defs><style>.cls-1{fill:#fff;}</style></defs><path class="cls-1" d="M14.702,15.998H1.297V.002h13.405v15.996ZM2.397,14.899h11.206V1.102H2.397v13.797Z"/><path class="cls-1" d="M7.808,7.871c-.921,0-1.67-.75-1.67-1.672s.749-1.671,1.67-1.671,1.67.749,1.67,1.671-.749,1.672-1.67,1.672ZM7.808,5.628c-.314,0-.57.257-.57.571s.256.572.57.572.57-.257.57-.572-.256-.571-.57-.571Z"/><path class="cls-1" d="M6.06,14.201c-1.731,0-3.141-1.411-3.141-3.146,0-1.195.665-2.272,1.735-2.811l.494.982c-.697.351-1.13,1.051-1.13,1.828,0,1.129.916,2.047,2.041,2.047s2.042-.918,2.042-2.047c0-.284-.06-.563-.176-.828l1.006-.443c.179.405.27.833.27,1.271,0,1.735-1.409,3.146-3.142,3.146Z"/><polygon class="cls-1" points="12.126 13.497 11.027 13.497 11.027 10.72 9.856 9.548 10.635 8.771 12.126 10.265 12.126 13.497"/><path class="cls-1" d="M5.836,12.092c-.077,0-.156-.016-.23-.051-.275-.127-.396-.454-.269-.729l1.325-2.871c.127-.275.456-.398.729-.269.275.127.396.454.269.729l-1.325,2.871c-.093.201-.291.319-.499.319Z"/><path class="cls-1" d="M7.842,10.656c-2.479,0-4.497-2.015-4.497-4.491S5.362,1.673,7.842,1.673s4.497,2.015,4.497,4.492-2.018,4.491-4.497,4.491ZM7.842,2.773c-1.873,0-3.397,1.522-3.397,3.393s1.524,3.392,3.397,3.392,3.397-1.521,3.397-3.392-1.524-3.393-3.397-3.393Z"/></svg>