<?xml version="1.0" encoding="UTF-8"?><svg id="Layer_1" xmlns="http://www.w3.org/2000/svg" width="16" height="16" viewBox="0 0 16 16"><defs><style>.cls-1{fill:#fff;}</style></defs><polygon class="cls-1" points="2.12 12.036 1.02 12.036 1.02 3.02 0 3.02 0 1.92 2.12 1.92 2.12 12.036"/><path class="cls-1" d="M16.007,12.24H1.02V3.569h14.987v8.671ZM2.12,11.141h12.788v-6.472H2.12v6.472Z"/><path class="cls-1" d="M14.649,14.08H2.492v-2.939h12.157v2.939ZM3.591,12.981h9.958v-.74H3.591v.74Z"/><path class="cls-1" d="M7.06,10.678h-3.96v-5.546h3.96v5.546ZM4.2,9.578h1.761v-3.347h-1.761v3.347Z"/><path class="cls-1" d="M11.49,10.678c-1.529,0-2.773-1.243-2.773-2.772s1.244-2.773,2.773-2.773,2.773,1.244,2.773,2.773-1.244,2.772-2.773,2.772ZM11.49,6.232c-.923,0-1.674.751-1.674,1.674s.751,1.673,1.674,1.673,1.674-.751,1.674-1.673-.751-1.674-1.674-1.674Z"/><rect class="cls-1" x="10.94" y="11.812" width="1.1" height="1.719"/></svg>